<?xml version="1.0" standalone="no"?><!DOCTYPE svg PUBLIC "-//W3C//DTD SVG 1.1//EN" "http://www.w3.org/Graphics/SVG/1.1/DTD/svg11.dtd"><svg class="icon" width="200px" height="200.00px" viewBox="0 0 1024 1024" version="1.1" xmlns="http://www.w3.org/2000/svg"><path d="M128 0h597.3l227.6 227.9v739.2c0 31.4-25.5 56.9-56.9 56.9H128c-31.4 0-56.9-25.5-56.9-56.9V56.9C71.1 25.5 96.6 0 128 0z" fill="#13BE93" /><path d="M630.5 1024H128c-25.7 0-47.4-17-54.4-40.4l218.1-218.1c22.2-22.2 58.2-22.2 80.5 0L630.5 1024z" fill="#6BD8BD" /><path d="M952.9 858v109.1c0 31.4-25.5 56.9-56.9 56.9H322.4l-4.7-4.7 358-358c22.2-22.2 58.2-22.2 80.5 0L952.9 858z" fill="#9CF9E2" /><path d="M725.3 0l227.6 227.6H782.2c-31.4 0-56.9-25.5-56.9-56.9V0z" fill="#69DCC0" /><path d="M327.1 483.6m-85.3 0a85.3 85.3 0 1 0 170.6 0 85.3 85.3 0 1 0-170.6 0Z" fill="#E9FFFA" /></svg>