<?xml version="1.0" standalone="no"?><!DOCTYPE svg PUBLIC "-//W3C//DTD SVG 1.1//EN" "http://www.w3.org/Graphics/SVG/1.1/DTD/svg11.dtd"><svg class="icon" width="200px" height="200.00px" viewBox="0 0 1024 1024" version="1.1" xmlns="http://www.w3.org/2000/svg"><path d="M102.4 102.4m307.2 0l204.8 0q307.2 0 307.2 307.2l0 204.8q0 307.2-307.2 307.2l-204.8 0q-307.2 0-307.2-307.2l0-204.8q0-307.2 307.2-307.2Z" fill="#64CBFF" /><path d="M414.72 698.06592a20.48 20.48 0 0 1 20.48 20.48v10.24a20.48 20.48 0 0 1-20.48 20.48H332.8a20.48 20.48 0 0 1-20.48-20.48v-10.24a20.48 20.48 0 0 1 20.48-20.48h81.92z m128 0a20.48 20.48 0 0 1 20.48 20.48v10.24a20.48 20.48 0 0 1-20.48 20.48h-40.96a20.48 20.48 0 0 1-20.48-20.48v-10.24a20.48 20.48 0 0 1 20.48-20.48h40.96z m143.36 0a20.48 20.48 0 0 1 20.48 20.48v10.24a20.48 20.48 0 0 1-20.48 20.48H604.16a20.48 20.48 0 0 1-20.48-20.48v-10.24a20.48 20.48 0 0 1 20.48-20.48h81.92z m-5.15072-406.37952c1.01376 0.86016 2.00704 1.7408 2.97984 2.64704 34.4576 32.13824 36.34688 86.12864 4.20864 120.59136-0.9472 1.01376-1.92 2.01216-2.9184 2.97984l-210.3808 204.56448a71.20384 71.20384 0 0 1-27.88864 16.7936c-48.3072 28.45696-90.00448 43.3408-125.0816 44.64128-1.09568-33.3312 9.6256-73.472 32.14336-120.41728a71.05024 71.05024 0 0 1 16.52224-38.29248l189.88032-223.66208c30.5664-36.00384 84.5312-40.41216 120.53504-9.84576z" fill="#FFFFFF" fill-opacity=".8" /></svg>