<?xml version="1.0" standalone="no"?><!DOCTYPE svg PUBLIC "-//W3C//DTD SVG 1.1//EN" "http://www.w3.org/Graphics/SVG/1.1/DTD/svg11.dtd"><svg class="icon" width="200px" height="147.34px" viewBox="0 0 1390 1024" version="1.1" xmlns="http://www.w3.org/2000/svg"><path d="M1279.461328 1023.998758h-73.995772a7.040297 7.040297 0 1 1 0-14.080594h73.995772a7.040297 7.040297 0 1 1 0 14.080594zM1151.650562 1023.998758H167.345221a7.040297 7.040297 0 1 1 0-14.080594h984.305341a7.040297 7.040297 0 1 1 0 14.080594zM135.263372 1023.998758H111.45999a7.040297 7.040297 0 1 1 0-14.080594h23.803382a7.040297 7.040297 0 1 1 0 14.080594z" fill="#7ECAFC" /><path d="M137.455315 510.422174c-0.699186-7.821449-7.606601-13.593772-15.426807-12.894586a14.624544 14.624544 0 0 0-9.558859 5.065686 13.660834 13.660834 0 0 0-3.179248 10.316413 14.607158 14.607158 0 0 0 5.138957 9.558859 13.088321 13.088321 0 0 0 9.003732 3.381677h1.125156c7.821449-0.700428 13.595014-7.606601 12.897069-15.428049z m-8.663452 11.406796a11.532228 11.532228 0 0 1-12.757978-1.398372 10.559825 10.559825 0 0 1-4.051058-7.801579 11.538437 11.538437 0 0 1 2.591833-8.488345 10.580937 10.580937 0 0 1 7.821448-4.053543h1.033256a11.447779 11.447779 0 0 1 11.508632 10.475377 11.528502 11.528502 0 0 1-6.146133 11.266462zM1225.903406 138.034038c-0.968677-10.820623-10.526294-18.809727-21.345674-17.84105a20.22797 20.22797 0 0 0-13.22493 7.008008 18.904111 18.904111 0 0 0-4.401272 14.27433 20.215551 20.215551 0 0 0 7.113569 13.22493 18.114266 18.114266 0 0 0 12.457439 4.679457h1.558577c10.819381-0.966194 18.807243-10.52381 17.842291-21.345675z m-11.986761 15.781989a15.955855 15.955855 0 0 1-17.652282-1.93487 14.614609 14.614609 0 0 1-5.608393-10.794543 15.96579 15.96579 0 0 1 3.587832-11.745834 14.641931 14.641931 0 0 1 10.823106-5.608394h1.42942c8.279708-0.073272 15.221895 6.241759 15.922324 14.494146a15.945919 15.945919 0 0 1-8.502007 15.589495zM197.685934 99.852006a3.055059 3.055059 0 0 1-3.053817-3.055059V77.042138l-13.95268 13.95268a3.132057 3.132057 0 0 1-4.428594-4.427352l13.955163-13.95268h-19.790823a3.06872 3.06872 0 1 1 0-6.138682h19.790823L176.249601 52.689838a2.912242 2.912242 0 0 1 0-4.427352 2.918451 2.918451 0 0 1 4.428594 0l13.95268 13.818555V42.323749a3.051334 3.051334 0 1 1 5.971026 0v19.757292l14.088046-13.953922a2.920935 2.920935 0 0 1 4.428594 0 2.915967 2.915967 0 0 1 0 4.427353l-13.955163 13.955163h19.75605a3.067478 3.067478 0 1 1 0 6.136198h-19.75605l13.955163 13.956406c0.791086 0.787361 1.097834 1.94108 0.809715 3.021528a3.139508 3.139508 0 0 1-2.214297 2.215539 3.134541 3.134541 0 0 1-3.025254-0.813441l-14.088045-13.984969v19.756051c0.335311 1.71133-1.373535 3.053817-3.051334 3.053817h0.136608zM208.651859 940.446611h-8.443638v-8.444879a2.539673 2.539673 0 1 0-5.08183 0v8.444879h-8.443638a2.539673 2.539673 0 1 0 0 5.081831h8.443638v8.443637a2.528496 2.528496 0 0 0 2.527254 2.526013l0.02608-0.109287a2.524771 2.524771 0 0 0 2.528496-2.528496v-8.330625h8.443638a2.542157 2.542157 0 0 0 0-5.083073zM1217.114522 745.274271c0 16.738248-11.333525 29.903566-25.352025 29.903566 14.05824 0 25.352025 13.391343 25.352025 29.904808 0-16.740732 11.336009-29.904808 25.349541-29.904808-14.05824 0-25.349541-13.386376-25.349541-29.903566z m0 0" fill="#CCCCCC" /><path d="M988.198679 129.231493H402.550016C319.268602 129.231493 252.104489 196.395606 252.104489 279.675778v586.993634c0 81.935201 67.164113 149.094346 150.445527 149.094347h586.992392c81.936443 0 149.095588-67.159146 149.095588-150.443044V279.675778c-0.001242-83.280172-67.160387-150.444285-150.439317-150.444285z" fill="#DFEFF7" /><path d="M326.618131 866.669412v-586.993634c0-83.280172 67.164113-150.444285 150.445527-150.444285h-74.513642C319.268602 129.231493 252.104489 196.395606 252.104489 279.675778v586.993634c0 81.935201 67.164113 149.094346 150.445527 149.094347h74.513642c-83.281414 0-150.445527-67.159146-150.445527-149.094347z" fill="#C7E6F9" /><path d="M989.542408 1022.804056H402.550016c-86.838198 0-157.485824-70.04034-157.485824-156.134644v-586.993634c0-42.158577 16.355744-81.732772 46.054398-111.431426s69.272849-46.054398 111.431426-46.054398h585.648663c42.157335 0 81.73153 16.355744 111.428942 46.054398 29.69617 29.698654 46.050673 69.271607 46.050673 111.431426v326.867752a7.040297 7.040297 0 1 1-14.080595 0V279.675778c0-79.072635-64.328869-143.403988-143.39902-143.403988H402.550016c-79.073877 0-143.403988 64.330111-143.403988 143.403988v586.993634c0 78.327499 64.330111 142.054049 143.403988 142.054049h586.992392c78.328741 0 142.055291-64.330111 142.055291-143.402746v-51.587036a7.040297 7.040297 0 1 1 14.080595 0v51.587036c-0.001242 86.836957-70.042824 157.483341-156.135886 157.483341z" fill="#7ECAFC" /><path d="M1138.636754 709.003513a7.040297 7.040297 0 0 1-7.040297-7.040297v-58.989966a7.040297 7.040297 0 1 1 14.080595 0v58.989966a7.040297 7.040297 0 0 1-7.040298 7.040297z" fill="#7ECAFC" /><path d="M375.672945 627.577489v-86.766168c0-7.950606 6.529879-14.460614 14.527677-14.460614h153.31927l-66.751805 115.684913h-86.567465c-7.997798-0.001242-14.527676-6.480203-14.527677-14.458131z" fill="#FFFFFF" /><path d="M484.888832 805.240366l-48.930625 33.149877c-6.582038 4.479512-11.239141 1.636816-10.32759-6.260387l6.529878-56.72351c0.907825-7.893478 7.315998-11.127371 14.245767-7.174422l37.866591 21.632552c6.916108 3.971577 7.19926 10.922458 0.615979 15.37589zM496.638392 773.27153l-37.867833-21.630069c-6.922317-3.970335-9.362639-12.837459-5.333935-19.733696l175.343019-303.965984c3.976545-6.908657 12.947987-9.331592 19.866579-5.330209l37.867832 21.592812c6.922317 4.001383 9.306754 12.874715 5.333935 19.757292L516.503729 767.954981c-3.969093 6.899963-12.94302 9.259562-19.865337 5.316549z" fill="#B1DDFC" /><path d="M630.091083 642.034378l66.74932-115.683671h38.435379l54.208674 115.683671z" fill="#209AFD" /><path d="M847.498294 676.556548c-15.1598-7.561893-90.659506-181.006055-110.003248-226.254465-19.361128-45.250893-77.834467-165.699711-58.92042-175.06235 13.458406-6.722372 61.758148 88.123559 97.970536 145.058191 36.158987 56.943325 111.772947 203.779908 121.077217 220.502011 9.253352 16.75936-8.906864 30.734394-19.007188 34.910883-10.110259 4.191392-15.968273 8.352979-31.116897 0.84573zM897.109477 756.273726l-22.81111-35.882044c-4.717955-7.451364-2.26894-16.668702 5.382369-20.605506l21.743081-11.132338c7.668696-3.895822 17.263569-0.746378 21.343191 7.066377l17.996286 34.451382c4.093283 7.799095 1.305231 17.805035-6.077829 22.20134l-15.549755 9.255836c-7.381818 4.468335-17.309519 2.041674-22.026233-5.355047zM981.063998 850.38073c-4.765147-15.194574-41.153884-16.210443-57.446293-39.104759-16.344567-22.81111-2.836486-34.563153 2.837728-39.988988 66.078698-37.049425 54.608564 79.093747 54.608565 79.093747z" fill="#B1DDFC" /><path d="M1015.067056 627.577489c0 7.977927-6.527395 14.45813-14.53016 14.458131h-76.742842c-0.84573-4.453432-2.220507-8.921767-4.537881-13.097015-1.998208-3.56672-7.048991-13.155384-14.083078-26.544243a10391.18818 10391.18818 0 0 0-40.365282-76.043655h135.726599c7.997798 0 14.525193 6.510009 14.525193 14.463097v86.763685h0.009935-0.002484z" fill="#FFFFFF" /></svg>