<?xml version="1.0" standalone="no"?><!DOCTYPE svg PUBLIC "-//W3C//DTD SVG 1.1//EN" "http://www.w3.org/Graphics/SVG/1.1/DTD/svg11.dtd"><svg class="icon" width="200px" height="200.00px" viewBox="0 0 1024 1024" version="1.1" xmlns="http://www.w3.org/2000/svg"><path d="M917.333333 21.333333h-810.666666A106.794667 106.794667 0 0 0 0 128v768c0 58.794667 47.872 106.666667 106.666667 106.666667h810.666666c58.794667 0 106.666667-47.872 106.666667-106.666667V128C1024 69.205333 976.128 21.333333 917.333333 21.333333z m-810.666666 42.666667h810.666666c35.285333 0 64 28.714667 64 64v64H42.666667V128c0-35.285333 28.714667-64 64-64z m810.666666 896h-810.666666c-35.285333 0-64-28.714667-64-64V234.666667h938.666666V896c0 35.285333-28.714667 64-64 64z" fill="#1296db" /><path d="M106.666667 128m-21.333334 0a21.333333 21.333333 0 1 0 42.666667 0 21.333333 21.333333 0 1 0-42.666667 0Z" fill="#1296db" /><path d="M192 128m-21.333333 0a21.333333 21.333333 0 1 0 42.666666 0 21.333333 21.333333 0 1 0-42.666666 0Z" fill="#1296db" /><path d="M277.333333 128m-21.333333 0a21.333333 21.333333 0 1 0 42.666667 0 21.333333 21.333333 0 1 0-42.666667 0Z" fill="#1296db" /><path d="M184.832 660.096a21.333333 21.333333 0 0 0 27.264-12.928l25.429333-71.168h122.282667l25.429333 71.168a21.290667 21.290667 0 1 0 40.149334-14.336l-106.666667-298.666667c-6.016-16.981333-34.090667-16.981333-40.149333 0l-106.666667 298.666667a21.333333 21.333333 0 0 0 12.928 27.264zM298.666667 404.778667L344.576 533.333333H252.757333L298.666667 404.778667zM832 320h-298.666667a21.333333 21.333333 0 0 0 0 42.666667h298.666667a21.333333 21.333333 0 0 0 0-42.666667zM832 448h-298.666667a21.333333 21.333333 0 0 0 0 42.666667h298.666667a21.333333 21.333333 0 0 0 0-42.666667zM832 576h-298.666667a21.333333 21.333333 0 0 0 0 42.666667h298.666667a21.333333 21.333333 0 0 0 0-42.666667zM832 704h-640a21.333333 21.333333 0 0 0 0 42.666667h640a21.333333 21.333333 0 0 0 0-42.666667zM832 832h-640a21.333333 21.333333 0 0 0 0 42.666667h640a21.333333 21.333333 0 0 0 0-42.666667z" fill="#1296db" /></svg>