<?xml version="1.0" standalone="no"?><!DOCTYPE svg PUBLIC "-//W3C//DTD SVG 1.1//EN" "http://www.w3.org/Graphics/SVG/1.1/DTD/svg11.dtd"><svg class="icon" width="200px" height="200.00px" viewBox="0 0 1024 1024" version="1.1" xmlns="http://www.w3.org/2000/svg"><path d="M595.09 756.894h206.636c120.692 0 220.294-96.292 222.21-216.968 0.044-2.778 0.066-5.56 0.066-8.348-0.04-282.352-231.044-512.68-513.394-511.928C228.478 20.4 0 249.342 0 531.648c0 198.418 112.872 370.456 277.91 455.438 103.272 53.178 226.166-23.018 226.166-139.178 0-50.266 40.748-91.014 91.014-91.014z" fill="#FFC751" /><path d="M77.136 681.726c24.634-7.606 38.964-32.892 33.224-58.026A413.286 413.286 0 0 1 100 531.64c0-109.84 42.72-213.18 120.3-290.96 60.142-60.282 135.67-99.654 217.748-114.44 23.864-4.298 41.286-24.958 41.286-49.206 0-31.27-28.364-54.718-59.132-49.148C181.246 71.148 0 280.214 0 531.64c0 39.524 4.486 77.998 12.966 114.946 6.376 27.774 34.996 44.172 62.218 35.742l1.952-0.602z" fill="#FFE059" /><path d="M96.398 352.788c21.844 6.064 45.134-3.302 56.268-23.05 18.162-32.216 40.812-62.166 67.634-89.056 37.532-37.62 81.062-67.088 128.432-87.524 24.892-10.738 36.658-39.372 26.272-64.412l-0.384-0.928c-10.604-25.56-40.072-37.334-65.476-26.36-103.226 44.59-188.86 122.17-243.62 219.454-15.66 27.82-0.898 63.08 29.868 71.6 0.336 0.09 0.672 0.182 1.006 0.276z" fill="#FFF370" /><path d="M253.78 89.508a512.34 512.34 0 0 0-42.324 27.672c-25.176 18.296-26.69 55.198-3.312 75.744l1.936 1.708c16.954 15.018 42.236 16.324 60.566 3.024a409.924 409.924 0 0 1 33.27-21.766c22.252-13.06 30.65-40.95 19.048-63.996l-1.092-2.174c-12.628-25.17-43.788-34.44-68.092-20.212z" fill="#FFF7C7" /><path d="M1024 531.58c0 2.78-0.02 5.56-0.06 8.34-1.92 120.68-101.52 216.98-222.22 216.98H595.08c-25.12 0-47.88 10.18-64.34 26.66-16.48 16.46-26.66 39.2-26.66 64.34 0 116.16-122.9 192.36-226.16 139.18-71.88-37-133.88-90.54-180.96-155.58 5.72 0.18 11.44 0.26 17.2 0.26 308.4 0 558.4-250.02 558.4-558.42 0-87-19.9-169.36-55.4-242.78C848.82 79.32 1023.96 285.72 1024 531.58z" fill="#FFAF40" /><path d="M283.324 738.028m-101.564 0a101.564 101.564 0 1 0 203.128 0 101.564 101.564 0 1 0-203.128 0Z" fill="#FFAF40" /><path d="M239.084 477.066m-101.564 0a101.564 101.564 0 1 0 203.128 0 101.564 101.564 0 1 0-203.128 0Z" fill="#FFAF40" /><path d="M405.176 269.166m-101.564 0a101.564 101.564 0 1 0 203.128 0 101.564 101.564 0 1 0-203.128 0Z" fill="#FFAF40" /><path d="M674.08 252.722m-101.564 0a101.564 101.564 0 1 0 203.128 0 101.564 101.564 0 1 0-203.128 0Z" fill="#FFAF40" /><path d="M859.234 448.296m-101.564 0a101.564 101.564 0 1 0 203.128 0 101.564 101.564 0 1 0-203.128 0Z" fill="#FF993A" /><path d="M1024 531.58c0 2.78-0.02 5.56-0.06 8.34-1.92 120.68-101.52 216.98-222.22 216.98h-41.28c83.2-84.16 134.56-199.84 134.56-327.54 0-149.12-70.04-281.86-179.02-367.16C896.86 141.32 1023.96 322.12 1024 531.58z" fill="#FF993A" /><path d="M245.956 697.544m-101.564 0a101.564 101.564 0 1 0 203.128 0 101.564 101.564 0 1 0-203.128 0Z" fill="#706C64" /><path d="M197.494 658.454m-39.09 0a39.09 39.09 0 1 0 78.18 0 39.09 39.09 0 1 0-78.18 0Z" fill="#8F8B81" /><path d="M347.514 697.552c0 56.08-45.458 101.556-101.556 101.556s-101.576-45.476-101.576-101.556c0-3.856 0.212-7.672 0.636-11.432 4.722 35.452 35.086 62.808 71.81 62.808 40.02 0 72.446-32.444 72.446-72.446s-32.426-72.446-72.446-72.446c-4.55 0-9.002 0.424-13.322 1.234 12.916-5.976 27.298-9.292 42.45-9.292 56.1-0.002 101.558 45.474 101.558 101.574z" fill="#595751" /><path d="M201.716 436.584m-101.564 0a101.564 101.564 0 1 0 203.128 0 101.564 101.564 0 1 0-203.128 0Z" fill="#8F6BDD" /><path d="M153.254 397.492m-39.09 0a39.09 39.09 0 1 0 78.18 0 39.09 39.09 0 1 0-78.18 0Z" fill="#AB97F2" /><path d="M303.274 436.59c0 56.08-45.458 101.556-101.556 101.556s-101.576-45.476-101.576-101.556c0-3.856 0.212-7.672 0.636-11.432 4.722 35.452 35.086 62.808 71.81 62.808 40.02 0 72.446-32.444 72.446-72.446s-32.426-72.446-72.446-72.446c-4.55 0-9.002 0.424-13.322 1.234 12.916-5.976 27.298-9.292 42.45-9.292 56.1-0.002 101.558 45.476 101.558 101.574z" fill="#8042E0" /><path d="M367.808 228.682m-101.564 0a101.564 101.564 0 1 0 203.128 0 101.564 101.564 0 1 0-203.128 0Z" fill="#79FF79" /><path d="M319.346 189.592m-39.09 0a39.09 39.09 0 1 0 78.18 0 39.09 39.09 0 1 0-78.18 0Z" fill="#C2FFC2" /><path d="M469.366 228.688c0 56.08-45.458 101.556-101.556 101.556s-101.576-45.476-101.576-101.556c0-3.856 0.212-7.672 0.636-11.432 4.722 35.452 35.086 62.808 71.81 62.808 40.02 0 72.446-32.444 72.446-72.446S378.7 135.172 338.68 135.172c-4.55 0-9.002 0.424-13.322 1.234 12.916-5.976 27.298-9.292 42.45-9.292 56.102 0 101.558 45.476 101.558 101.574z" fill="#29E088" /><path d="M636.712 212.24m-101.564 0a101.564 101.564 0 1 0 203.128 0 101.564 101.564 0 1 0-203.128 0Z" fill="#48ACFF" /><path d="M588.25 173.148m-39.09 0a39.09 39.09 0 1 0 78.18 0 39.09 39.09 0 1 0-78.18 0Z" fill="#7CBAF7" /><path d="M738.27 212.246c0 56.08-45.458 101.556-101.556 101.556s-101.576-45.476-101.576-101.556c0-3.856 0.212-7.672 0.636-11.432 4.724 35.452 35.086 62.808 71.81 62.808 40.02 0 72.446-32.444 72.446-72.446s-32.426-72.446-72.446-72.446c-4.55 0-9.002 0.424-13.322 1.234 12.916-5.976 27.298-9.292 42.45-9.292 56.1-0.002 101.558 45.476 101.558 101.574z" fill="#229BFF" /><path d="M821.866 407.812m-101.564 0a101.564 101.564 0 1 0 203.128 0 101.564 101.564 0 1 0-203.128 0Z" fill="#FC709B" /><path d="M773.404 368.722m-39.09 0a39.09 39.09 0 1 0 78.18 0 39.09 39.09 0 1 0-78.18 0Z" fill="#F7A6C1" /><path d="M923.424 407.82c0 56.08-45.458 101.556-101.556 101.556s-101.576-45.476-101.576-101.556c0-3.856 0.212-7.672 0.636-11.432 4.722 35.452 35.086 62.808 71.81 62.808 40.02 0 72.446-32.444 72.446-72.446s-32.426-72.446-72.446-72.446c-4.55 0-9.002 0.424-13.322 1.234 12.916-5.976 27.298-9.292 42.45-9.292 56.1-0.002 101.558 45.476 101.558 101.574z" fill="#FE255F" /></svg>