<?xml version="1.0" standalone="no"?><!DOCTYPE svg PUBLIC "-//W3C//DTD SVG 1.1//EN" "http://www.w3.org/Graphics/SVG/1.1/DTD/svg11.dtd"><svg class="icon" width="200px" height="200.00px" viewBox="0 0 1024 1024" version="1.1" xmlns="http://www.w3.org/2000/svg"><path d="M752.128 945.024h-480c-108.928 0-197.248-88.32-197.248-197.248v-480C74.752 158.72 163.072 70.4 272.128 70.4h480c108.928 0 197.248 88.32 197.248 197.248v480c0 109.056-88.32 197.376-197.248 197.376z" fill="#00E560" /><path d="M193.536 453.376h-3.328c-9.984 0-18.176-8.192-18.176-18.176v-9.984c0-9.856 7.936-17.792 17.792-17.792h3.712v45.952zM600.576 696.192H262.4c-29.696 0-53.632-24.064-53.632-53.632V372.864c0-29.696 24.064-53.632 53.632-53.632h338.176c29.696 0 53.632 24.064 53.632 53.632v269.568c0.128 29.696-23.936 53.76-53.632 53.76zM816.128 353.28v308.736c0 2.176-2.432 3.456-4.224 2.176l-132.992-89.216c-0.768-0.512-1.152-1.28-1.152-2.176v-130.56c0-0.896 0.512-1.792 1.152-2.176l132.992-89.088c1.792-1.152 4.224 0.128 4.224 2.304zM836.992 346.24h15.104v322.816h-15.104z" fill="#FFFFFF" /></svg>