<?xml version="1.0" standalone="no"?><!DOCTYPE svg PUBLIC "-//W3C//DTD SVG 1.1//EN" "http://www.w3.org/Graphics/SVG/1.1/DTD/svg11.dtd"><svg class="icon" width="200px" height="200.00px" viewBox="0 0 1024 1024" version="1.1" xmlns="http://www.w3.org/2000/svg"><path d="M938.666667 358.613333v307.2a170.922667 170.922667 0 0 1-107.52 158.293334l-256 102.4a171.136 171.136 0 0 1-126.72 0l-256-102.4A170.538667 170.538667 0 0 1 85.333333 665.813333v-307.2a170.666667 170.666667 0 0 1 107.093334-158.72l256-102.4a171.136 171.136 0 0 1 126.72 0l256 102.4A171.093333 171.093333 0 0 1 938.666667 358.613333z" fill="#FFB531" /><path d="M798.72 356.053333l-184.32 73.813334a111.104 111.104 0 0 0-70.4 104.106666v232.106667a32 32 0 0 1-64 0v-232.106667a173.866667 173.866667 0 0 1 17.493333-77.226666 179.626667 179.626667 0 0 1-51.2-12.373334l-221.44-88.32a32 32 0 0 1 23.893334-59.306666l221.44 88.32a112.170667 112.170667 0 0 0 83.2 0l221.44-88.32a31.573333 31.573333 0 0 1 41.386666 17.493333 31.872 31.872 0 0 1-17.493333 41.813333z" fill="#030835" /></svg>