<?xml version="1.0" standalone="no"?><!DOCTYPE svg PUBLIC "-//W3C//DTD SVG 1.1//EN" "http://www.w3.org/Graphics/SVG/1.1/DTD/svg11.dtd"><svg class="icon" width="200px" height="200.00px" viewBox="0 0 1024 1024" version="1.1" xmlns="http://www.w3.org/2000/svg"><path d="M128 128m85.333333 0l597.333334 0q85.333333 0 85.333333 85.333333l0 597.333334q0 85.333333-85.333333 85.333333l-597.333334 0q-85.333333 0-85.333333-85.333333l0-597.333334q0-85.333333 85.333333-85.333333Z" fill="#DBDDE1" /><path d="M384 469.333333a85.333333 85.333333 0 1 1 0-170.666666 85.333333 85.333333 0 0 1 0 170.666666zM831.594667 511.04L896 567.765333v240.32C889.685333 864.682667 864.512 896 778.666667 896H234.666667c-28.8 0-49.834667-4.352-65.216-12.16a85.653333 85.653333 0 0 1-31.061334-32.341333C129.109333 830.869333 128 804.522667 128 775.637333l4.352-3.242666 194.346667-133.717334c31.616-21.888 76.266667-19.456 104.32 5.674667l13.44 11.349333c30.805333 27.136 80.576 27.136 111.402666 0l164.330667-144.661333c30.826667-27.157333 80.597333-27.157333 111.402667 0z" fill="#3F495C" /></svg>