<?xml version="1.0" standalone="no"?><!DOCTYPE svg PUBLIC "-//W3C//DTD SVG 1.1//EN" "http://www.w3.org/Graphics/SVG/1.1/DTD/svg11.dtd"><svg class="icon" width="200px" height="200.00px" viewBox="0 0 1024 1024" version="1.1" xmlns="http://www.w3.org/2000/svg"><path d="M974.014171 96.621714c0-32.504686-17.466514-58.836114-46.562742-58.836114H96.548571c-29.0816 0-58.762971 26.346057-58.762971 58.836114V915.163429c0 32.504686 29.681371 58.836114 58.762971 58.836114h830.902858c29.0816 0 46.562743-26.346057 46.562742-58.836114V96.621714z m-219.428571-0.321828v819.2h-512v-819.2h512z m-658.285714 819.2v-819.2h117.028571v819.2h-117.028571z m819.2 0h-131.657143v-819.2h131.657143v819.2z"  /><path d="M365.714286 715.044571c4.520229 2.618514 14.145829 3.920457 19.192685 3.920458s10.766629-1.301943 15.286858-3.920458l307.492571-177.371428a29.257143 29.257143 0 0 0 14.628571-25.336686c0-10.4448-5.851429-20.114286-14.921142-25.336686L399.491657 309.613714c-9.055086-5.2224-24.736914-5.2224-33.792 0s-20.714057 14.891886-20.714057 25.336686v354.742857c0 10.459429 11.6736 20.114286 20.728686 25.351314z m37.7856-329.4208l219.428571 126.698058-219.428571 126.698057V385.623771z"  /><path d="M562.541714 500.150857l-87.771428-58.514286a14.628571 14.628571 0 1 0-16.237715 24.341943l87.771429 58.514286a14.599314 14.599314 0 0 0 20.289829-4.052114c4.476343-6.729143 2.6624-15.798857-4.052115-20.289829zM842.357029 883.8144a14.628571 14.628571 0 0 0 14.628571-14.628571v-29.257143a14.628571 14.628571 0 1 0-29.257143 0v29.257143a14.628571 14.628571 0 0 0 14.628572 14.628571zM842.357029 766.785829a14.628571 14.628571 0 0 0 14.628571-14.628572v-58.514286a14.628571 14.628571 0 1 0-29.257143 0v58.514286a14.628571 14.628571 0 0 0 14.628572 14.628572zM842.357029 327.928686a14.628571 14.628571 0 0 0 14.628571-14.628572v-58.514285a14.628571 14.628571 0 1 0-29.257143 0v58.514285a14.628571 14.628571 0 0 0 14.628572 14.628572zM842.357029 620.500114a14.628571 14.628571 0 0 0 14.628571-14.628571v-58.514286a14.628571 14.628571 0 1 0-29.257143 0v58.514286a14.628571 14.628571 0 0 0 14.628572 14.628571zM842.357029 474.2144a14.628571 14.628571 0 0 0 14.628571-14.628571v-58.514286a14.628571 14.628571 0 1 0-29.257143 0v58.514286a14.628571 14.628571 0 0 0 14.628572 14.628571zM842.357029 181.642971a14.628571 14.628571 0 0 0 14.628571-14.628571v-29.257143a14.628571 14.628571 0 1 0-29.257143 0v29.257143a14.628571 14.628571 0 0 0 14.628572 14.628571zM154.814171 825.300114a14.628571 14.628571 0 0 0-14.628571 14.628572v29.257143a14.628571 14.628571 0 1 0 29.257143 0v-29.257143a14.628571 14.628571 0 0 0-14.628572-14.628572zM154.814171 679.0144a14.628571 14.628571 0 0 0-14.628571 14.628571v58.514286a14.628571 14.628571 0 1 0 29.257143 0v-58.514286a14.628571 14.628571 0 0 0-14.628572-14.628571zM154.814171 386.442971a14.628571 14.628571 0 0 0-14.628571 14.628572v58.514286a14.628571 14.628571 0 1 0 29.257143 0v-58.514286a14.628571 14.628571 0 0 0-14.628572-14.628572zM154.814171 240.157257a14.628571 14.628571 0 0 0-14.628571 14.628572v58.514285a14.628571 14.628571 0 1 0 29.257143 0v-58.514285a14.628571 14.628571 0 0 0-14.628572-14.628572zM154.814171 532.728686a14.628571 14.628571 0 0 0-14.628571 14.628571v58.514286a14.628571 14.628571 0 1 0 29.257143 0v-58.514286a14.628571 14.628571 0 0 0-14.628572-14.628571zM154.814171 123.128686a14.628571 14.628571 0 0 0-14.628571 14.628571v29.257143a14.628571 14.628571 0 1 0 29.257143 0v-29.257143a14.628571 14.628571 0 0 0-14.628572-14.628571z"  /></svg>